<svg width="36" height="32" viewBox="0 0 36 32" fill="none" xmlns="http://www.w3.org/2000/svg">
<g filter="url(#filter0_d_38_38)">
<path d="M21.8931 18.1181C22.47 18.1181 23.0339 17.9451 23.5135 17.621C23.9932 17.297 24.367 16.8364 24.5877 16.2975C24.8085 15.7587 24.8663 15.1657 24.7537 14.5936C24.6412 14.0216 24.3634 13.4961 23.9555 13.0837C23.5476 12.6712 23.0279 12.3904 22.4621 12.2766C21.8963 12.1628 21.3099 12.2212 20.7769 12.4444C20.244 12.6676 19.7885 13.0456 19.468 13.5306C19.1475 14.0155 18.9764 14.5857 18.9764 15.169L16.2056 16.4518C15.7294 16.1346 15.1717 15.9654 14.6014 15.9652C13.8279 15.9652 13.086 16.2759 12.539 16.829C11.9921 17.3821 11.6848 18.1322 11.6848 18.9143C11.6848 19.6965 11.9921 20.4466 12.539 20.9996C13.086 21.5527 13.8279 21.8634 14.6014 21.8634C15.0713 21.8636 15.5332 21.7417 15.9431 21.5095L19.0056 22.984C19.0794 23.6284 19.3613 24.2303 19.8077 24.6963C20.254 25.1623 20.8399 25.4665 21.4745 25.5618C22.1092 25.6571 22.7572 25.5381 23.3182 25.2233C23.8792 24.9085 24.3219 24.4155 24.5777 23.8206C24.8335 23.2257 24.8882 22.562 24.7332 21.9325C24.5783 21.303 24.2224 20.7427 23.7206 20.3384C23.2188 19.9341 22.5992 19.7084 21.9578 19.6962C21.3163 19.6839 20.6887 19.886 20.1723 20.2709L17.6202 19.0913L20.4056 17.7937C20.8643 18.033 21.3776 18.1449 21.8931 18.1181ZM27.6098 6.64616C26.7187 4.57591 25.1809 2.85819 23.2319 1.75619C21.283 0.654195 19.0305 0.228726 16.8195 0.54498C14.6085 0.861235 12.5611 1.90177 10.991 3.50713C9.42082 5.11249 8.41458 7.19412 8.12643 9.43303C6.90466 9.73392 5.81176 10.4259 5.01062 11.406C4.20948 12.386 3.743 13.6015 3.68069 14.8714C3.61839 16.1413 3.9636 17.3976 4.66487 18.4529C5.36615 19.5083 6.38594 20.3063 7.57226 20.728C7.72351 20.7751 7.88068 20.7999 8.03893 20.8017C8.4257 20.8643 8.82122 20.7689 9.13847 20.5367C9.45571 20.3044 9.66871 19.9542 9.73059 19.5631C9.79248 19.172 9.69818 18.7721 9.46845 18.4513C9.23872 18.1306 8.89237 17.9152 8.50559 17.8526C7.95567 17.6519 7.4781 17.2887 7.13484 16.8102C6.79158 16.3317 6.59848 15.7599 6.58059 15.169C6.58059 14.3868 6.88788 13.6367 7.43486 13.0837C7.98185 12.5306 8.72371 12.2199 9.49726 12.2199C9.88403 12.2199 10.255 12.0646 10.5285 11.788C10.8019 11.5115 10.9556 11.1364 10.9556 10.7454C10.9593 9.0014 11.5743 7.31523 12.6914 5.98643C13.8085 4.65762 15.3552 3.77221 17.0569 3.48751C18.7586 3.20281 20.505 3.53725 21.9858 4.43142C23.4666 5.32558 24.5861 6.72157 25.1452 8.37137C25.2285 8.62475 25.3784 8.85049 25.5787 9.02449C25.7791 9.19849 26.0224 9.31421 26.2827 9.35931C27.1596 9.5198 27.9672 9.94725 28.5973 10.5845C29.2274 11.2217 29.6501 12.0383 29.8087 12.925C29.9672 13.8118 29.8542 14.7263 29.4847 15.5463C29.1152 16.3663 28.5068 17.0526 27.741 17.5135C27.4045 17.709 27.1586 18.0317 27.0574 18.4106C26.9562 18.7894 27.008 19.1934 27.2014 19.5336C27.3948 19.8738 27.714 20.1225 28.0886 20.2248C28.4633 20.3271 28.8629 20.2747 29.1993 20.0792C30.3051 19.4303 31.2226 18.4988 31.86 17.3781C32.4973 16.2575 32.832 14.9871 32.8306 13.6944C32.8262 12.108 32.3158 10.5654 31.3752 9.29562C30.4347 8.02585 29.1141 7.09669 27.6098 6.64616Z" fill="black"/>
</g>
<defs>
<filter id="filter0_d_38_38" x="-0.326477" y="0.443207" width="37.1571" height="33.1506" filterUnits="userSpaceOnUse" color-interpolation-filters="sRGB">
<feFlood flood-opacity="0" result="BackgroundImageFix"/>
<feColorMatrix in="SourceAlpha" type="matrix" values="0 0 0 0 0 0 0 0 0 0 0 0 0 0 0 0 0 0 127 0" result="hardAlpha"/>
<feOffset dy="4"/>
<feGaussianBlur stdDeviation="2"/>
<feComposite in2="hardAlpha" operator="out"/>
<feColorMatrix type="matrix" values="0 0 0 0 0 0 0 0 0 0 0 0 0 0 0 0 0 0 0.25 0"/>
<feBlend mode="normal" in2="BackgroundImageFix" result="effect1_dropShadow_38_38"/>
<feBlend mode="normal" in="SourceGraphic" in2="effect1_dropShadow_38_38" result="shape"/>
</filter>
</defs>
</svg>
