<svg width="30" height="31" viewBox="0 0 30 31" fill="none" xmlns="http://www.w3.org/2000/svg">
<path d="M28.8389 12.0818L26.0827 11.1529L27.3806 8.52819C27.5122 8.25346 27.5562 7.94422 27.5065 7.64313C27.4569 7.34204 27.3161 7.06395 27.1035 6.84722L23.9972 3.70645C23.7818 3.48835 23.5041 3.34402 23.2033 3.29377C22.9024 3.24352 22.5936 3.28986 22.3202 3.42629L19.7243 4.73863L18.8056 1.95176C18.7085 1.66126 18.5244 1.40857 18.2787 1.22886C18.033 1.04915 17.738 0.951348 17.4347 0.949071H13.0597C12.754 0.948273 12.4558 1.04465 12.2072 1.22458C11.9586 1.4045 11.7722 1.65888 11.6743 1.95176L10.7556 4.73863L8.15975 3.42629C7.88804 3.29326 7.5822 3.24876 7.28442 3.29895C6.98664 3.34913 6.7116 3.49151 6.49725 3.70645L3.391 6.84722C3.17529 7.0651 3.03255 7.34587 2.98285 7.65004C2.93315 7.95421 2.97898 8.26648 3.11391 8.54294L4.41183 11.1676L1.65558 12.0966C1.36828 12.1947 1.11837 12.3809 0.940631 12.6293C0.762892 12.8778 0.666167 13.176 0.663915 13.4826V17.9062C0.663126 18.2154 0.758442 18.5169 0.936393 18.7683C1.11434 19.0197 1.36593 19.2081 1.65558 19.3071L4.41183 20.236L3.11391 22.8607C2.98234 23.1354 2.93834 23.4447 2.98797 23.7457C3.0376 24.0468 3.17842 24.3249 3.391 24.5417L6.49725 27.6824C6.71274 27.9005 6.99042 28.0449 7.29125 28.0951C7.59207 28.1454 7.90091 28.099 8.17433 27.9626L10.7702 26.6502L11.6889 29.4371C11.7867 29.73 11.9731 29.9844 12.2217 30.1643C12.4704 30.3442 12.7686 30.4406 13.0743 30.4398H17.4493C17.7551 30.4406 18.0533 30.3442 18.3019 30.1643C18.5505 29.9844 18.7369 29.73 18.8347 29.4371L19.7535 26.6502L22.3493 27.9626C22.6193 28.0923 22.9222 28.1349 23.2169 28.0848C23.5117 28.0347 23.7841 27.8942 23.9972 27.6824L27.1035 24.5417C27.3192 24.3238 27.4619 24.043 27.5116 23.7388C27.5613 23.4347 27.5155 23.1224 27.3806 22.8459L26.0827 20.2213L28.8389 19.2923C29.1262 19.1942 29.3761 19.008 29.5539 18.7596C29.7316 18.5111 29.8283 18.2129 29.8306 17.9062V13.4826C29.8314 13.1735 29.7361 12.8719 29.5581 12.6206C29.3802 12.3692 29.1286 12.1807 28.8389 12.0818ZM26.9139 16.8446L25.1639 17.4344C24.7615 17.5664 24.3923 17.7853 24.0819 18.076C23.7715 18.3666 23.5274 18.7221 23.3665 19.1177C23.2055 19.5133 23.1316 19.9396 23.1499 20.3669C23.1682 20.7943 23.2782 21.2125 23.4722 21.5926L24.3035 23.2736L22.6993 24.8955L21.0806 24.0108C20.7066 23.8224 20.2969 23.7175 19.8794 23.7031C19.4618 23.6887 19.046 23.7652 18.6602 23.9274C18.2744 24.0896 17.9276 24.3337 17.6432 24.6432C17.3588 24.9527 17.1435 25.3203 17.0118 25.7213L16.4285 27.4907H14.1097L13.5264 25.7213C13.3959 25.3144 13.1794 24.9411 12.8919 24.6273C12.6044 24.3134 12.2529 24.0666 11.8616 23.9039C11.4704 23.7411 11.0488 23.6664 10.6261 23.6849C10.2035 23.7034 9.78982 23.8146 9.41391 24.0108L7.75141 24.8513L6.14725 23.2293L7.02225 21.5926C7.21634 21.2125 7.32634 20.7943 7.34461 20.3669C7.36287 19.9396 7.28897 19.5133 7.12803 19.1177C6.96709 18.7221 6.72297 18.3666 6.41258 18.076C6.1022 17.7853 5.733 17.5664 5.33058 17.4344L3.58058 16.8446V14.5443L5.33058 13.9545C5.733 13.8225 6.1022 13.6036 6.41258 13.3129C6.72297 13.0222 6.96709 12.6668 7.12803 12.2712C7.28897 11.8756 7.36287 11.4493 7.34461 11.022C7.32634 10.5946 7.21634 10.1764 7.02225 9.79629L6.191 8.15956L7.79516 6.53757L9.41391 7.37805C9.78982 7.5743 10.2035 7.68552 10.6261 7.70399C11.0488 7.72246 11.4704 7.64774 11.8616 7.48501C12.2529 7.32228 12.6044 7.07544 12.8919 6.76161C13.1794 6.44778 13.3959 6.07448 13.5264 5.66759L14.1097 3.89814H16.3847L16.9681 5.66759C17.0986 6.07448 17.3151 6.44778 17.6026 6.76161C17.8901 7.07544 18.2416 7.32228 18.6329 7.48501C19.0241 7.64774 19.4457 7.72246 19.8684 7.70399C20.291 7.68552 20.7047 7.5743 21.0806 7.37805L22.7431 6.53757L24.3472 8.15956L23.4722 9.79629C23.2859 10.1744 23.1821 10.5886 23.1679 11.0109C23.1536 11.4331 23.2293 11.8535 23.3897 12.2436C23.5501 12.6336 23.7915 12.9843 24.0976 13.2719C24.4037 13.5594 24.7674 13.7771 25.1639 13.9102L26.9139 14.5001V16.8446ZM15.2472 9.79629C14.0935 9.79629 12.9657 10.1422 12.0064 10.7903C11.0471 11.4384 10.2995 12.3596 9.85795 13.4373C9.41644 14.5151 9.30092 15.701 9.526 16.8451C9.75108 17.9892 10.3067 19.0402 11.1225 19.8651C11.9383 20.6899 12.9777 21.2517 14.1092 21.4793C15.2408 21.7068 16.4137 21.59 17.4796 21.1436C18.5455 20.6972 19.4565 19.9412 20.0975 18.9713C20.7385 18.0013 21.0806 16.861 21.0806 15.6944C21.0806 14.1302 20.466 12.6299 19.372 11.5238C18.2781 10.4177 16.7943 9.79629 15.2472 9.79629ZM15.2472 18.6435C14.6704 18.6435 14.1065 18.4706 13.6268 18.1465C13.1472 17.8225 12.7734 17.3619 12.5526 16.823C12.3318 16.2841 12.2741 15.6912 12.3866 15.1191C12.4992 14.547 12.7769 14.0216 13.1849 13.6091C13.5928 13.1967 14.1125 12.9158 14.6782 12.802C15.244 12.6882 15.8305 12.7466 16.3634 12.9699C16.8964 13.1931 17.3519 13.571 17.6724 14.056C17.9929 14.541 18.1639 15.1112 18.1639 15.6944C18.1639 16.4766 17.8566 17.2267 17.3096 17.7797C16.7627 18.3328 16.0208 18.6435 15.2472 18.6435Z" fill="black"/>
</svg>
