<svg width="30" height="31" viewBox="0 0 30 31" fill="none" xmlns="http://www.w3.org/2000/svg">
<path d="M25.4556 0.949081H5.03893C3.8786 0.949081 2.76581 1.41514 1.94533 2.24473C1.12486 3.07432 0.663925 4.19948 0.663925 5.37269V20.1181C0.663925 21.2913 1.12486 22.4164 1.94533 23.246C2.76581 24.0756 3.8786 24.5417 5.03893 24.5417H8.88893L8.04309 26.0162C7.7871 26.4645 7.65233 26.9731 7.65233 27.4907C7.65233 28.0084 7.7871 28.517 8.04309 28.9653C8.30129 29.4175 8.67361 29.7923 9.122 30.0514C9.57038 30.3105 10.0788 30.4445 10.5952 30.4398H20.016C20.5275 30.4393 21.0298 30.3028 21.4726 30.044C21.9155 29.7852 22.2832 29.4132 22.5389 28.9653C22.7949 28.517 22.9297 28.0084 22.9297 27.4907C22.9297 26.9731 22.7949 26.4645 22.5389 26.0162L21.6785 24.5417H25.4556C26.6159 24.5417 27.7287 24.0756 28.5492 23.246C29.3697 22.4164 29.8306 21.2913 29.8306 20.1181V5.37269C29.8306 4.19948 29.3697 3.07432 28.5492 2.24473C27.7287 1.41514 26.6159 0.949081 25.4556 0.949081ZM10.5368 27.4907L12.3306 24.5417H18.1639L19.9139 27.4907H10.5368ZM26.9139 20.1181C26.9139 20.5091 26.7603 20.8842 26.4868 21.1607C26.2133 21.4372 25.8424 21.5926 25.4556 21.5926H5.03893C4.65215 21.5926 4.28122 21.4372 4.00773 21.1607C3.73424 20.8842 3.58059 20.5091 3.58059 20.1181V18.6435H26.9139V20.1181ZM26.9139 15.6945H3.58059V5.37269C3.58059 4.98162 3.73424 4.60657 4.00773 4.33004C4.28122 4.05351 4.65215 3.89816 5.03893 3.89816H25.4556C25.8424 3.89816 26.2133 4.05351 26.4868 4.33004C26.7603 4.60657 26.9139 4.98162 26.9139 5.37269V15.6945Z" fill="black"/>
</svg>
